<!--?xml version="1.0" encoding="utf-8"?-->
<!-- Generator: Adobe Illustrator 24.0.0, SVG Export Plug-In . SVG Version: 6.00 Build 0)  -->
<svg version="1.1" id="Capa_1" xmlns="http://www.w3.org/2000/svg" xmlns:xlink="http://www.w3.org/1999/xlink" x="0px" y="0px" viewBox="0 0 1366 768" style="" xml:space="preserve">
<style type="text/css">
	.st0{fill:none;stroke:#b648f2;stroke-width:5;}
</style>
<g>
	<path class="st0 baDYpBGx_0" d="M497.7,126.3h16.8v138.5c0,18.7-5.4,33.6-16.2,44.7c-10.8,11.1-25.2,16.6-43.4,16.6c-19.1,0-33.8-5-44.1-15
		c-10.3-10-15.4-24-15.4-42H412c0,14.3,3.7,25,11.2,32.1c7.5,7.2,18,10.8,31.7,10.8c12.5,0,22.8-4.2,30.7-12.5
		c7.9-8.3,11.9-19.6,12.1-33.8L497.7,126.3L497.7,126.3z"></path>
	<path class="st0 baDYpBGx_1" d="M653.6,304.8c-9.7,14.2-25.3,21.3-46.7,21.3c-15.6,0-27.5-4.5-35.6-13.6c-8.1-9.1-12.3-22.5-12.5-40.3v-95.3
		H575v93.3c0,27.9,11.3,41.8,33.8,41.8c23.5,0,38.3-9.7,44.5-29.1v-106h16.2v146.5h-15.7L653.6,304.8z"></path>
	<path class="st0 baDYpBGx_2" d="M804.2,323.3c-1.6-4.6-2.7-11.4-3.1-20.4c-5.7,7.4-12.9,13.1-21.7,17.1c-8.8,4-18.1,6-28,6
		c-14.1,0-25.5-3.9-34.2-11.8c-8.7-7.8-13.1-17.8-13.1-29.8c0-14.2,5.9-25.5,17.8-33.8c11.9-8.3,28.4-12.5,49.6-12.5h29.4v-16.6
		c0-10.5-3.2-18.7-9.7-24.7c-6.4-6-15.9-9-28.2-9c-11.3,0-20.6,2.9-28,8.7c-7.4,5.8-11.1,12.7-11.1,20.9l-16.2-0.1
		c0-11.6,5.4-21.7,16.2-30.3c10.8-8.5,24.1-12.8,39.9-12.8c16.3,0,29.2,4.1,38.7,12.3c9.4,8.2,14.3,19.6,14.5,34.2v69.3
		c0,14.2,1.5,24.8,4.5,31.8v1.6L804.2,323.3L804.2,323.3z M753.3,311.7c10.8,0,20.5-2.6,29-7.8c8.5-5.2,14.7-12.2,18.6-21v-32.2h-29
		c-16.1,0.2-28.8,3.1-37.9,8.9c-9.1,5.7-13.7,13.6-13.7,23.6c0,8.2,3.1,15,9.1,20.4C735.6,309,743.5,311.7,753.3,311.7z"></path>
	<path class="st0 baDYpBGx_3" d="M875.6,176.9l0.5,25c5.5-9,12.4-15.9,20.6-20.7c8.2-4.7,17.3-7.1,27.2-7.1c15.7,0,27.4,4.4,35.1,13.3
		c7.7,8.8,11.6,22.1,11.6,39.8v96.1h-16.1v-96.2c-0.1-13.1-2.9-22.8-8.3-29.2c-5.5-6.4-14.2-9.6-26.2-9.6c-10,0-18.9,3.1-26.6,9.4
		c-7.7,6.3-13.4,14.7-17.1,25.4v100.3h-16.1V176.9L875.6,176.9L875.6,176.9z"></path>
</g>
<g>
	<path class="st0 baDYpBGx_4" d="M204,534.6c-2.3,20.8-9.7,36.6-22.3,47.7c-12.6,11-29.4,16.5-50.3,16.5c-14.6,0-27.5-3.7-38.8-11
		c-11.2-7.3-19.9-17.7-26.1-31.1c-6.1-13.4-9.3-28.7-9.3-46v-25.6c0-17.5,3.1-33,9.2-46.6c6.1-13.5,15-24,26.5-31.3
		c11.5-7.4,24.7-11,39.7-11c21.1,0,37.8,5.7,50,17.1c12.2,11.4,19.3,27.1,21.3,47.2h-16.8c-4.2-33.5-22.3-50.2-54.6-50.2
		c-17.9,0-32.1,6.7-42.7,20.1c-10.6,13.4-15.9,31.8-15.9,55.4v24.1c0,22.8,5.2,40.9,15.5,54.5c10.3,13.5,24.3,20.3,41.9,20.3
		c17.4,0,30.5-4.2,39.4-12.5c8.8-8.3,14.3-20.9,16.4-37.6L204,534.6L204,534.6z"></path>
	<path class="st0 baDYpBGx_5" d="M333.2,596c-1.6-4.6-2.7-11.4-3.1-20.4c-5.7,7.4-12.9,13.1-21.7,17.1c-8.8,4-18.1,6-28,6
		c-14.1,0-25.5-3.9-34.2-11.8c-8.7-7.8-13.1-17.8-13.1-29.8c0-14.2,5.9-25.5,17.8-33.8c11.9-8.3,28.4-12.5,49.6-12.5h29.4v-16.6
		c0-10.5-3.2-18.7-9.7-24.7c-6.4-6-15.9-9-28.2-9c-11.3,0-20.6,2.9-28,8.7c-7.4,5.8-11.1,12.7-11.1,20.9l-16.2-0.1
		c0-11.6,5.4-21.7,16.2-30.3c10.8-8.5,24.1-12.8,39.9-12.8c16.3,0,29.2,4.1,38.7,12.3c9.4,8.2,14.3,19.6,14.5,34.2v69.3
		c0,14.2,1.5,24.8,4.5,31.8v1.6L333.2,596L333.2,596z M282.3,584.4c10.8,0,20.5-2.6,29-7.8c8.5-5.2,14.7-12.2,18.6-21v-32.2h-29
		c-16.1,0.2-28.8,3.1-37.9,8.9c-9.1,5.7-13.7,13.6-13.7,23.6c0,8.2,3.1,15,9.1,20.4C264.6,581.7,272.5,584.4,282.3,584.4z"></path>
	<path class="st0 baDYpBGx_6" d="M476.9,558.8c0-8-3.2-14.5-9.7-19.4s-16.2-8.7-29.2-11.4s-23.1-5.9-30.3-9.5c-7.2-3.6-12.5-7.9-16-13.1
		c-3.5-5.1-5.2-11.4-5.2-18.7c0-11.6,4.8-21.1,14.5-28.6c9.7-7.5,22-11.3,37.1-11.3c16.3,0,29.4,4,39.3,12.1
		c9.9,8.1,14.8,18.6,14.8,31.6h-16.2c0-8.6-3.6-15.7-10.8-21.4c-7.2-5.7-16.2-8.5-27.1-8.5c-10.7,0-19.2,2.4-25.6,7.1
		c-6.4,4.7-9.7,10.9-9.7,18.5c0,7.3,2.7,13,8.1,17c5.4,4,15.2,7.7,29.4,11c14.2,3.3,24.9,6.9,31.9,10.7c7.1,3.8,12.3,8.3,15.8,13.7
		c3.4,5.3,5.1,11.8,5.1,19.4c0,12.4-5,22.3-15,29.7c-10,7.4-23,11.1-39.1,11.1c-17.1,0-30.9-4.1-41.5-12.4
		c-10.6-8.3-15.9-18.7-15.9-31.3H398c0.6,9.5,4.6,16.9,12,22.1c7.4,5.3,17.1,7.9,29.2,7.9c11.3,0,20.4-2.5,27.3-7.4
		C473.4,572.6,476.9,566.4,476.9,558.8z"></path>
	<path class="st0 baDYpBGx_7" d="M554.7,412v37.5h30.3v13.3h-30.3v97.7c0,8.1,1.5,14.2,4.4,18.2c2.9,4,7.8,6,14.7,6c2.7,0,7.1-0.5,13.1-1.4
		l0.7,13.2c-4.2,1.5-10,2.3-17.3,2.3c-11.1,0-19.2-3.2-24.2-9.7c-5.1-6.4-7.6-15.9-7.6-28.5v-97.7h-26.9v-13.3h26.9V412H554.7z"></path>
	<path class="st0 baDYpBGx_8" d="M675.4,598.7c-12.5,0-23.7-3.1-33.8-9.2c-10.1-6.1-17.9-14.7-23.5-25.6s-8.4-23.3-8.4-36.9v-5.8
		c0-14.1,2.7-26.8,8.2-38c5.5-11.3,13.1-20.2,22.8-26.6c9.7-6.4,20.3-9.7,31.7-9.7c17.8,0,31.9,6.1,42.3,18.2
		c10.4,12.1,15.6,28.7,15.6,49.7v9.1H625.8v3.1c0,16.6,4.8,30.4,14.3,41.5c9.5,11.1,21.5,16.6,35.9,16.6c8.7,0,16.3-1.6,22.9-4.7
		c6.6-3.2,12.7-8.2,18.1-15.2l10.2,7.7C715.3,590.1,698,598.7,675.4,598.7z M672.4,460.6c-12.2,0-22.5,4.5-30.8,13.4
		c-8.3,8.9-13.4,20.9-15.2,36h87.9v-1.8c-0.5-14.1-4.5-25.5-12.1-34.4C694.6,465.1,684.7,460.6,672.4,460.6z"></path>
	<path class="st0 baDYpBGx_9" d="M780,596h-16.2V388.1H780V596z"></path>
	<path class="st0 baDYpBGx_10" d="M842.1,596h-16.2V388.1h16.2V596z"></path>
	<path class="st0 baDYpBGx_11" d="M978.6,596c-1.6-4.6-2.7-11.4-3.1-20.4c-5.7,7.4-12.9,13.1-21.7,17.1c-8.8,4-18.1,6-28,6
		c-14.1,0-25.5-3.9-34.2-11.8c-8.7-7.8-13.1-17.8-13.1-29.8c0-14.2,5.9-25.5,17.8-33.8c11.9-8.3,28.4-12.5,49.6-12.5h29.4v-16.6
		c0-10.5-3.2-18.7-9.7-24.7c-6.4-6-15.9-9-28.2-9c-11.3,0-20.6,2.9-28,8.7c-7.4,5.8-11.1,12.7-11.1,20.9l-16.2-0.1
		c0-11.6,5.4-21.7,16.2-30.3c10.8-8.5,24.1-12.8,39.9-12.8c16.3,0,29.2,4.1,38.7,12.3c9.4,8.2,14.3,19.6,14.5,34.2v69.3
		c0,14.2,1.5,24.8,4.5,31.8v1.6L978.6,596L978.6,596z M927.7,584.4c10.8,0,20.5-2.6,29-7.8c8.5-5.2,14.7-12.2,18.6-21v-32.2h-29
		c-16.1,0.2-28.8,3.1-37.9,8.9c-9.1,5.7-13.7,13.6-13.7,23.6c0,8.2,3.1,15,9.1,20.4C910,581.7,917.9,584.4,927.7,584.4z"></path>
	<path class="st0 baDYpBGx_12" d="M1050,449.5l0.5,25c5.5-9,12.4-15.9,20.6-20.7c8.2-4.7,17.3-7.1,27.2-7.1c15.7,0,27.4,4.4,35.1,13.3
		c7.7,8.8,11.6,22.1,11.6,39.8V596H1129v-96.2c-0.1-13.1-2.9-22.8-8.3-29.2c-5.5-6.4-14.2-9.6-26.2-9.6c-10,0-18.9,3.1-26.6,9.4
		s-13.4,14.7-17.1,25.4V596h-16.1V449.5L1050,449.5L1050,449.5z"></path>
	<path class="st0 baDYpBGx_13" d="M1178,520.6c0-14.1,2.7-26.8,8.2-38c5.5-11.3,13.2-20.1,23.1-26.3c10-6.3,21.3-9.4,33.9-9.4
		c19.5,0,35.3,6.8,47.4,20.5c12.1,13.7,18.1,31.8,18.1,54.4v3.4c0,14.2-2.7,26.9-8.2,38.2s-13.2,20.1-23.1,26.2
		c-9.9,6.1-21.3,9.2-34,9.2c-19.4,0-35.2-6.8-47.3-20.5c-12.1-13.7-18.2-31.8-18.2-54.4L1178,520.6L1178,520.6z M1194.2,525.1
		c0,17.5,4.5,31.9,13.6,43.1c9.1,11.2,21,16.9,35.7,16.9c14.6,0,26.5-5.6,35.5-16.9c9.1-11.2,13.6-26.1,13.6-44.5v-3.1
		c0-11.2-2.1-21.4-6.2-30.7c-4.2-9.3-10-16.5-17.5-21.6c-7.5-5.1-16.1-7.6-25.7-7.6c-14.4,0-26.2,5.7-35.3,17
		c-9.1,11.3-13.7,26.1-13.7,44.5L1194.2,525.1L1194.2,525.1z"></path>
</g>
<style data-made-with="vivus-instant">.baDYpBGx_0{stroke-dasharray:642 644;stroke-dashoffset:643;animation:baDYpBGx_draw 6000ms ease-in-out 0ms forwards;}.baDYpBGx_1{stroke-dasharray:763 765;stroke-dashoffset:764;animation:baDYpBGx_draw 6000ms ease-in-out 0ms forwards;}.baDYpBGx_2{stroke-dasharray:930 932;stroke-dashoffset:931;animation:baDYpBGx_draw 6000ms ease-in-out 0ms forwards;}.baDYpBGx_3{stroke-dasharray:771 773;stroke-dashoffset:772;animation:baDYpBGx_draw 6000ms ease-in-out 0ms forwards;}.baDYpBGx_4{stroke-dasharray:941 943;stroke-dashoffset:942;animation:baDYpBGx_draw 6000ms ease-in-out 0ms forwards;}.baDYpBGx_5{stroke-dasharray:930 932;stroke-dashoffset:931;animation:baDYpBGx_draw 6000ms ease-in-out 0ms forwards;}.baDYpBGx_6{stroke-dasharray:804 806;stroke-dashoffset:805;animation:baDYpBGx_draw 6000ms ease-in-out 0ms forwards;}.baDYpBGx_7{stroke-dasharray:565 567;stroke-dashoffset:566;animation:baDYpBGx_draw 6000ms ease-in-out 0ms forwards;}.baDYpBGx_8{stroke-dasharray:882 884;stroke-dashoffset:883;animation:baDYpBGx_draw 6000ms ease-in-out 0ms forwards;}.baDYpBGx_9{stroke-dasharray:449 451;stroke-dashoffset:450;animation:baDYpBGx_draw 6000ms ease-in-out 0ms forwards;}.baDYpBGx_10{stroke-dasharray:449 451;stroke-dashoffset:450;animation:baDYpBGx_draw 6000ms ease-in-out 0ms forwards;}.baDYpBGx_11{stroke-dasharray:930 932;stroke-dashoffset:931;animation:baDYpBGx_draw 6000ms ease-in-out 0ms forwards;}.baDYpBGx_12{stroke-dasharray:771 773;stroke-dashoffset:772;animation:baDYpBGx_draw 6000ms ease-in-out 0ms forwards;}.baDYpBGx_13{stroke-dasharray:808 810;stroke-dashoffset:809;animation:baDYpBGx_draw 6000ms ease-in-out 0ms forwards;}@keyframes baDYpBGx_draw{100%{stroke-dashoffset:0;}}@keyframes baDYpBGx_fade{0%{stroke-opacity:1;}96.07843137254902%{stroke-opacity:1;}100%{stroke-opacity:0;}}</style></svg>
